<svg xmlns="http://www.w3.org/2000/svg" xmlns:xlink="http://www.w3.org/1999/xlink"><symbol id="sprite-arrow-b" viewBox="0 0 14 18"><path fill-rule="evenodd" clip-rule="evenodd" d="M7.819 18V0H6.18v18z"/><path fill-rule="evenodd" clip-rule="evenodd" d="M6.181 17.229c0-3.629 3.388-6.594 7-6.594H14v1.543h-.819c-2.743 0-5.362 2.307-5.362 5.05V18H6.18z"/><path fill-rule="evenodd" clip-rule="evenodd" d="M7.819 17.229c0-3.629-3.388-6.594-7-6.594H0v1.543h.819c2.743 0 5.362 2.307 5.362 5.05V18h1.638z"/></symbol><use xlink:href="#sprite-arrow-b" width="14" height="18" y="0"/><view id="sprite-arrow-b-view" viewBox="0 0 14 18"/><symbol id="sprite-arrow-tr" viewBox="0 0 14 18"><path fill-rule="evenodd" clip-rule="evenodd" d="M11.969 2.517.13 14.355l1.143 1.142L13.11 3.659z"/><path fill-rule="evenodd" clip-rule="evenodd" d="M12.579 4.19c-2.502 2.503-6.91 2.185-9.428-.334l-.571-.57L3.644 2.22l.57.571c1.913 1.913 5.33 2.149 7.223.257l.532-.532 1.142 1.142z"/><path fill-rule="evenodd" clip-rule="evenodd" d="M11.437 3.049c-2.503 2.502-2.185 6.909.334 9.428l.571.57 1.064-1.063-.571-.571c-1.913-1.913-2.148-5.33-.256-7.222l.532-.532-1.142-1.142z"/></symbol><use xlink:href="#sprite-arrow-tr" width="14" height="18" y="18"/><view id="sprite-arrow-tr-view" viewBox="0 18 14 18"/><symbol id="sprite-logo" viewBox="0 0 60 40"><path d="M44.262 1.088q0 1.137-1.637 3.263-1.636 2.125-4.976 5.29t-6.22 5.786a914 914 0 0 1-7.53 6.625 2283 2283 0 0 0-6.744 5.983q-4.256 3.808-8.054 6.724-3.798 2.868-5.5 3.857l-1.637.989Q1.375 40 .786 40 0 40 0 39.06q0-3.658 3.143-12.904 1.964-5.785 4.714-11.471 2.751-5.736 4.518-8.505l1.768-2.818q.982-1.483 2.62-2.373 1.701-.89 2.88-.89.917 0 .917.494 0 .099-.131.396a503 503 0 0 0-2.75 5.29q-1.637 3.314-4.976 11.471-3.34 8.109-4.518 13.746.064.79.654.79.328 0 .917-.444 5.434-3.906 12.637-10.977Q34.702 8.703 36.013 2.77q0-1.384 2.16-2.077C39.657.231 40.002.5 41.312.5c1.265 0 2.95-.137 2.95.588"/><path d="M39.922 0q9.222 0 14.615 4.06Q60 8.12 60 15.088q0 4.21-2.909 8.671-2.91 4.411-7.733 8.02-4.825 3.61-11.778 5.915T23.178 40q-1.42 0-2.767-.1a43 43 0 0 1-1.916-.1l-.639-.1q-1.134-.201-1.135-.803l.213-.501q.71-1.203 2.058-3.308 1.276-2.105 6.03-8.271a167 167 0 0 1 10.288-11.93q5.108-5.413 8.088-7.519.993-.75 1.632-.751.495 0 .496.601 0 .4-.07.501-.64 1.956-4.541 7.369-12.913 16.14-16.176 22.456a.8.8 0 0 0-.071.35q0 .502.567.552.426.05 1.277.05 6.243 0 12.842-4.26 6.67-4.26 10.997-10.627 4.328-6.416 4.328-12.18 0-4.211-3.406-7.018-3.406-2.857-9.223-2.857-2.98 0-4.966 1.153-1.916 1.153-1.916 3.358 0 1.755 1.49 3.61.141.3.142.6 0 .402-.426.402-.213 0-.638-.15-1.632-.603-3.619-2.507-1.986-1.905-1.986-3.96 0-1.604 1.702-2.556A10.1 10.1 0 0 1 35.523.3Q37.509 0 39.92 0"/></symbol><use xlink:href="#sprite-logo" width="60" height="40" y="36"/><view id="sprite-logo-view" viewBox="0 36 60 40"/><symbol id="sprite-quote" viewBox="0 0 28 28"><path d="m25.608 10.175-.029-.197-.03.007a5.25 5.25 0 1 0-5.132 6.348c.26 0 .51-.04.758-.075-.08.27-.163.546-.296.793-.133.36-.341.67-.548.985-.172.339-.477.569-.7.86-.235.282-.555.47-.808.704-.248.245-.574.367-.833.54-.27.155-.506.327-.758.409l-.63.259-.552.23.564 2.261.697-.168c.223-.055.495-.12.804-.199.316-.058.653-.218 1.029-.364.37-.167.8-.278 1.2-.545.4-.254.864-.466 1.272-.807.396-.351.873-.656 1.225-1.102.385-.417.765-.856 1.06-1.355.342-.476.575-.999.82-1.516.221-.516.4-1.045.546-1.558.276-1.03.4-2.007.448-2.844.04-.837.016-1.534-.033-2.038q-.024-.315-.074-.629m-12.833 0-.03-.197-.03.007a5.25 5.25 0 1 0-5.132 6.348c.26 0 .51-.04.759-.075-.08.27-.164.546-.297.793-.133.36-.34.67-.547.985-.173.339-.477.569-.701.86-.235.282-.554.47-.807.704-.249.245-.574.367-.833.54-.271.155-.507.327-.759.409l-.629.259c-.35.143-.551.227-.551.227l.564 2.262.697-.168c.223-.056.494-.121.804-.2.316-.058.653-.217 1.029-.363.37-.167.8-.278 1.199-.545.401-.255.864-.467 1.273-.808.395-.35.872-.655 1.225-1.1.385-.418.765-.857 1.06-1.357.342-.476.574-.998.82-1.515.221-.517.4-1.045.545-1.559.277-1.029.4-2.006.448-2.843.04-.838.017-1.534-.032-2.038a9 9 0 0 0-.075-.626"/></symbol><use xlink:href="#sprite-quote" width="28" height="28" y="76"/><view id="sprite-quote-view" viewBox="0 76 28 28"/></svg>